<svg xmlns:xlink="http://www.w3.org/1999/xlink" width="1.968ex" height="2.343ex" style="vertical-align: -0.338ex;" viewBox="0 -863.1 847.5 1008.6" role="img" focusable="false" xmlns="http://www.w3.org/2000/svg"><g stroke="currentColor" fill="currentColor" stroke-width="0" transform="matrix(1 0 0 -1 0 0)"><path stroke-width="1" d="M301 348Q257 348 231 383T205 480Q205 553 244 629T346 736Q370 750 394 750Q416 750 429 742T458 714Q512 644 606 644Q722 644 802 732Q817 750 827 750Q835 750 841 744T847 730Q847 725 827 700T689 540Q586 421 512 335Q180 -50 176 -52Q172 -56 165 -56Q157 -56 151 -50T145 -35Q145 -29 162 -9T330 186Q392 258 430 302Q711 627 711 628L701 624Q652 607 604 607Q551 607 494 634L479 642V624Q479 544 439 467Q414 416 377 382T301 348ZM270 443Q270 385 303 385H306H308Q326 385 348 407Q384 441 409 504T434 627Q434 713 390 713Q358 713 328 663Q307 631 289 556T270 451V443ZM608 -56Q573 -56 543 -23T513 76Q513 129 536 190T604 296L627 318Q670 347 704 347Q747 347 767 310T788 222Q788 126 732 35T608 -56ZM742 222Q742 310 699 310Q677 310 655 285T620 227Q608 197 593 138T578 42V36Q578 -18 613 -18Q657 -18 699 64T742 222Z"></path></g></svg>