<svg xmlns:xlink="http://www.w3.org/1999/xlink" width="9.689ex" height="2.343ex" style="vertical-align: -0.338ex;" viewBox="0 -863.1 4171.5 1008.6" role="img" focusable="false" xmlns="http://www.w3.org/2000/svg"><g stroke="currentColor" fill="currentColor" stroke-width="0" transform="matrix(1 0 0 -1 0 0)"><path stroke-width="1" d="M449 44Q449 26 465 26Q482 26 502 43Q528 71 547 136Q550 148 552 150T566 153H572Q582 153 585 153T592 150T595 143Q595 133 585 105T547 41T483 -8Q475 -10 459 -10Q421 -10 399 12T377 72Q377 93 393 135Q448 288 448 349Q448 367 447 372Q437 405 408 405Q381 405 357 393T315 360T291 329T278 309Q267 290 262 274T231 151Q199 24 196 16Q182 -11 152 -11T120 18Q120 23 159 181Q199 343 199 346Q202 360 202 372Q202 406 183 406Q163 406 148 374Q142 360 135 338T124 299T117 280T98 278H81Q75 284 75 287Q76 293 78 303T90 341T110 388T141 425T184 442Q195 442 204 441T221 436T235 429T247 421T256 412T262 403T267 394T271 387T273 381L274 378V374L287 387Q342 442 414 442Q474 442 500 410T526 338Q526 290 488 178T449 44Z"></path><path stroke-width="1" d="M301 348Q257 348 231 383T205 480Q205 553 244 629T346 736Q370 750 394 750Q416 750 429 742T458 714Q512 644 606 644Q722 644 802 732Q817 750 827 750Q835 750 841 744T847 730Q847 725 827 700T689 540Q586 421 512 335Q180 -50 176 -52Q172 -56 165 -56Q157 -56 151 -50T145 -35Q145 -29 162 -9T330 186Q392 258 430 302Q711 627 711 628L701 624Q652 607 604 607Q551 607 494 634L479 642V624Q479 544 439 467Q414 416 377 382T301 348ZM270 443Q270 385 303 385H306H308Q326 385 348 407Q384 441 409 504T434 627Q434 713 390 713Q358 713 328 663Q307 631 289 556T270 451V443ZM608 -56Q573 -56 543 -23T513 76Q513 129 536 190T604 296L627 318Q670 347 704 347Q747 347 767 310T788 222Q788 126 732 35T608 -56ZM742 222Q742 310 699 310Q677 310 655 285T620 227Q608 197 593 138T578 42V36Q578 -18 613 -18Q657 -18 699 64T742 222Z" transform="translate(812,0)"></path><path stroke-width="1" d="M158 683Q163 683 223 688T300 694Q312 694 312 686Q312 679 262 478L211 273Q212 272 219 276T248 299T296 349Q317 371 328 382T360 410T399 434T439 442Q462 442 480 427T498 373Q498 329 479 313T437 296Q420 296 409 305T398 331Q398 357 413 372T445 391Q454 392 448 399Q445 405 431 405Q408 405 377 385Q351 368 314 327T250 261Q243 257 243 254Q249 254 279 243T328 220Q366 192 366 146Q366 131 361 109T355 62V54Q355 26 376 26Q379 26 387 28Q420 36 443 130Q449 151 454 152Q457 153 465 153H470Q484 153 488 152T492 144Q492 141 489 126T476 88T454 42T420 5T372 -11Q331 -11 306 17T280 88Q280 100 283 119T287 146Q287 172 265 190T221 215T198 220Q197 220 173 121Q152 37 148 24T135 3Q121 -11 102 -11Q89 -11 80 -3T69 19L216 616Q216 629 209 632T170 637H149Q143 643 143 645T145 664Q150 683 158 683Z" transform="translate(1881,0)"></path><path stroke-width="1" d="M776 357T776 347T761 327H470Q180 327 176 329Q164 334 164 347Q164 359 176 365Q179 367 470 367H761Q776 357 776 347ZM116 143T116 153T131 173H422Q713 173 717 171Q728 166 728 153T717 135Q713 133 422 133H131Q116 143 116 153Z" transform="translate(2591,0)"></path><path stroke-width="1" d="M414 665Q562 665 562 490Q562 426 534 318Q451 -21 251 -21Q222 -21 202 -15Q155 2 134 40T110 144Q110 201 127 286T187 470T287 614Q348 665 414 665ZM187 98Q187 59 208 37T260 15Q320 15 365 83Q394 128 440 312T487 547Q487 580 471 600T433 627Q428 628 408 628Q381 628 353 609T311 569Q279 526 239 364T190 143Q187 120 187 98Z" transform="translate(3609,0)"></path></g></svg>