<svg xmlns:xlink="http://www.w3.org/1999/xlink" width="13.299ex" height="2.843ex" style="vertical-align: -0.838ex;" viewBox="0 -863.1 5726 1223.9" role="img" focusable="false" xmlns="http://www.w3.org/2000/svg"><g stroke="currentColor" fill="currentColor" stroke-width="0" transform="matrix(1 0 0 -1 0 0)"><path stroke-width="1" d="M34 159Q34 268 120 355T306 442Q362 442 394 418T427 355Q427 326 408 306T360 285Q341 285 330 295T319 325T330 359T352 380T366 386H367Q367 388 361 392T340 400T306 404Q276 404 249 390Q228 381 206 359Q162 315 142 235T121 119Q121 73 147 50Q169 26 205 26H209Q321 26 394 111Q403 121 406 121Q410 121 419 112T429 98T420 83T391 55T346 25T282 0T202 -11Q127 -11 81 37T34 159Z"></path><g transform="translate(433,0)"><path stroke-width="1" d="M118 -250V750H255V710H158V-210H255V-250H118Z"></path></g><g transform="translate(712,0)"><path stroke-width="1" d="M241 -250Q203 -212 174 -140T144 39Q144 158 180 288T296 544T481 746L487 750H499Q517 750 517 740Q517 736 495 716Q399 630 331 491T236 228T208 3Q208 -73 224 -130T255 -214T271 -244Q271 -250 252 -250H241Z"></path><path stroke-width="1" d="M234 599Q234 620 251 638T292 656Q306 656 319 647T332 617Q332 594 313 577T273 560Q260 560 247 569T234 599ZM75 287Q75 292 82 313T103 362T142 413T196 441H214Q248 441 270 419T293 357Q292 338 289 330T245 208Q193 72 193 46Q193 26 209 26Q228 26 247 43Q273 71 292 136Q295 148 297 150T311 153H317Q327 153 330 153T337 150T340 143Q340 133 330 105T292 41T228 -8Q220 -10 204 -10Q160 -10 141 15T122 71Q122 98 171 227T221 384Q221 396 218 400T203 405Q175 403 156 374T128 312T116 279Q115 278 97 278H81Q75 284 75 287Z" transform="translate(409,0)"></path><path stroke-width="1" d="M139 237T139 250T151 266T198 270H293H431L465 407Q469 424 476 452Q494 528 500 542T519 557Q526 557 532 552T538 538Q538 536 507 409T472 272Q472 270 604 270Q737 270 741 268Q753 261 753 250Q753 237 742 233T696 229Q687 229 655 229T599 230H462L461 226Q461 224 427 91T392 -47Q387 -57 374 -57Q367 -57 361 -51T355 -37Q355 -31 388 99L421 230H288Q267 230 238 230T199 229Q163 229 151 233Z" transform="translate(967,0)"></path><path stroke-width="1" d="M158 683Q163 683 223 688T300 694Q312 694 312 686Q312 679 262 478L211 273Q212 272 219 276T248 299T296 349Q317 371 328 382T360 410T399 434T439 442Q462 442 480 427T498 373Q498 329 479 313T437 296Q420 296 409 305T398 331Q398 357 413 372T445 391Q454 392 448 399Q445 405 431 405Q408 405 377 385Q351 368 314 327T250 261Q243 257 243 254Q249 254 279 243T328 220Q366 192 366 146Q366 131 361 109T355 62V54Q355 26 376 26Q379 26 387 28Q420 36 443 130Q449 151 454 152Q457 153 465 153H470Q484 153 488 152T492 144Q492 141 489 126T476 88T454 42T420 5T372 -11Q331 -11 306 17T280 88Q280 100 283 119T287 146Q287 172 265 190T221 215T198 220Q197 220 173 121Q152 37 148 24T135 3Q121 -11 102 -11Q89 -11 80 -3T69 19L216 616Q216 629 209 632T170 637H149Q143 643 143 645T145 664Q150 683 158 683Z" transform="translate(1984,0)"></path><path stroke-width="1" d="M326 497Q326 546 320 588T304 655T285 699T269 728T262 740Q262 746 267 749L272 750Q276 750 281 750H293Q331 712 360 640T390 461Q390 332 339 171T188 -116Q161 -150 121 -188T47 -250H35Q17 -250 17 -240Q17 -236 39 -216Q135 -130 203 9T298 272T326 497Z" transform="translate(2445,0)"></path><path stroke-width="1" d="M301 348Q257 348 231 383T205 480Q205 553 244 629T346 736Q370 750 394 750Q416 750 429 742T458 714Q512 644 606 644Q722 644 802 732Q817 750 827 750Q835 750 841 744T847 730Q847 725 827 700T689 540Q586 421 512 335Q180 -50 176 -52Q172 -56 165 -56Q157 -56 151 -50T145 -35Q145 -29 162 -9T330 186Q392 258 430 302Q711 627 711 628L701 624Q652 607 604 607Q551 607 494 634L479 642V624Q479 544 439 467Q414 416 377 382T301 348ZM270 443Q270 385 303 385H306H308Q326 385 348 407Q384 441 409 504T434 627Q434 713 390 713Q358 713 328 663Q307 631 289 556T270 451V443ZM608 -56Q573 -56 543 -23T513 76Q513 129 536 190T604 296L627 318Q670 347 704 347Q747 347 767 310T788 222Q788 126 732 35T608 -56ZM742 222Q742 310 699 310Q677 310 655 285T620 227Q608 197 593 138T578 42V36Q578 -18 613 -18Q657 -18 699 64T742 222Z" transform="translate(3104,0)"></path><path stroke-width="1" d="M449 44Q449 26 465 26Q482 26 502 43Q528 71 547 136Q550 148 552 150T566 153H572Q582 153 585 153T592 150T595 143Q595 133 585 105T547 41T483 -8Q475 -10 459 -10Q421 -10 399 12T377 72Q377 93 393 135Q448 288 448 349Q448 367 447 372Q437 405 408 405Q381 405 357 393T315 360T291 329T278 309Q267 290 262 274T231 151Q199 24 196 16Q182 -11 152 -11T120 18Q120 23 159 181Q199 343 199 346Q202 360 202 372Q202 406 183 406Q163 406 148 374Q142 360 135 338T124 299T117 280T98 278H81Q75 284 75 287Q76 293 78 303T90 341T110 388T141 425T184 442Q195 442 204 441T221 436T235 429T247 421T256 412T262 403T267 394T271 387T273 381L274 378V374L287 387Q342 442 414 442Q474 442 500 410T526 338Q526 290 488 178T449 44Z" transform="translate(4173,0)"></path></g><g transform="translate(5447,0)"><path stroke-width="1" d="M22 710V750H159V-250H22V-210H119V710H22Z"></path></g></g></svg>