<svg xmlns:xlink="http://www.w3.org/1999/xlink" width="18.924ex" height="2.509ex" style="vertical-align: -0.671ex;" viewBox="0 -791.3 8148 1080.4" role="img" focusable="false" xmlns="http://www.w3.org/2000/svg"><g stroke="currentColor" fill="currentColor" stroke-width="0" transform="matrix(1 0 0 -1 0 0)"><path stroke-width="1" d="M418 54Q418 26 438 26Q466 26 494 131Q500 151 504 152Q507 153 516 153H521H526Q543 153 543 144Q543 143 541 129Q531 91 521 65T487 14T434 -11T383 3T354 30T347 48H346Q345 47 342 45T337 40Q282 -11 228 -11Q172 -11 137 34T101 146Q101 255 174 348T337 441Q354 441 368 437T390 427T404 414T413 404T417 400L471 616Q471 629 464 632T425 637H404Q398 643 398 645T400 664Q405 683 413 683Q418 683 478 688T555 694Q567 694 567 686Q567 676 495 389L419 86Q418 80 418 61V54ZM397 323Q397 329 394 340T385 367T365 394T333 405Q302 405 271 372Q249 349 235 316T203 215Q184 135 184 108V100Q184 71 191 56Q204 26 235 26Q267 26 300 57T344 112Q347 117 372 217T397 323Z"></path><path stroke-width="1" d="M234 599Q234 620 251 638T292 656Q306 656 319 647T332 617Q332 594 313 577T273 560Q260 560 247 569T234 599ZM75 287Q75 292 82 313T103 362T142 413T196 441H214Q248 441 270 419T293 357Q292 338 289 330T245 208Q193 72 193 46Q193 26 209 26Q228 26 247 43Q273 71 292 136Q295 148 297 150T311 153H317Q327 153 330 153T337 150T340 143Q340 133 330 105T292 41T228 -8Q220 -10 204 -10Q160 -10 141 15T122 71Q122 98 171 227T221 384Q221 396 218 400T203 405Q175 403 156 374T128 312T116 279Q115 278 97 278H81Q75 284 75 287Z" transform="translate(511,0)"></path><path stroke-width="1" d="M418 53Q418 26 438 26Q466 26 494 131Q500 151 504 152Q507 153 516 153H521Q531 153 534 153T540 150T543 144Q543 141 540 126T529 88T509 43T477 5T434 -11Q404 -11 383 3T354 30T347 48H346Q345 47 342 45T337 40Q282 -11 228 -11Q172 -11 137 34T101 146Q101 260 177 351T333 442Q343 442 352 441T369 437T382 431T393 425T402 417T409 410T414 402T419 396Q423 406 436 414T461 422Q475 422 484 413T494 395Q494 384 459 244T420 88Q418 80 418 58V53ZM397 323Q397 344 382 374T333 405Q302 405 271 372Q249 349 235 316T203 215Q184 135 184 108V100V94Q184 54 207 35Q218 26 235 26Q279 26 330 91Q343 109 346 118T372 217Q397 317 397 323Z" transform="translate(819,0)"></path><path stroke-width="1" d="M103 163Q106 263 173 347T320 441Q322 441 329 441T341 442Q387 439 419 398Q420 399 420 400Q421 402 425 406T440 416T464 422Q476 421 485 413T494 396Q494 386 465 268T407 38T377 -77Q365 -123 310 -164T179 -205Q46 -205 46 -139Q46 -114 64 -97T106 -79Q127 -79 136 -91T146 -115Q146 -127 141 -138T130 -155T124 -162T125 -163Q133 -166 170 -168Q200 -168 217 -162Q242 -153 264 -130T297 -78Q298 -74 305 -46T320 10T327 38Q326 38 317 31T291 15T256 2Q249 1 231 1Q182 1 143 38T103 163ZM398 324Q398 330 395 346T375 383T332 405Q330 405 326 405T320 404Q291 396 263 365Q230 324 208 239T185 115Q185 38 238 38Q258 38 279 50T312 77T336 106L348 122Q349 125 373 223T398 324Z" transform="translate(1330,0)"></path><path stroke-width="1" d="M103 155Q103 266 185 354T366 442Q435 442 476 394T517 275Q517 169 436 79T255 -11Q194 -11 149 32T103 155ZM187 119Q187 67 209 47T260 26Q290 26 321 47Q354 68 380 113T426 260Q432 291 432 315Q432 361 408 385Q388 405 358 405Q319 405 283 374T227 294Q217 271 202 213T187 119Z" transform="translate(1791,0)"></path><path stroke-width="1" d="M449 44Q449 26 465 26Q482 26 502 43Q528 71 547 136Q550 148 552 150T566 153H572Q582 153 585 153T592 150T595 143Q595 133 585 105T547 41T483 -8Q475 -10 459 -10Q421 -10 399 12T377 72Q377 93 393 135Q448 288 448 349Q448 367 447 372Q437 405 408 405Q381 405 357 393T315 360T291 329T278 309Q267 290 262 274T231 151Q199 24 196 16Q182 -11 152 -11T120 18Q120 23 159 181Q199 343 199 346Q202 360 202 372Q202 406 183 406Q163 406 148 374Q142 360 135 338T124 299T117 280T98 278H81Q75 284 75 287Q76 293 78 303T90 341T110 388T141 425T184 442Q195 442 204 441T221 436T235 429T247 421T256 412T262 403T267 394T271 387T273 381L274 378V374L287 387Q342 442 414 442Q474 442 500 410T526 338Q526 290 488 178T449 44Z" transform="translate(2302,0)"></path><path stroke-width="1" d="M418 53Q418 26 438 26Q466 26 494 131Q500 151 504 152Q507 153 516 153H521Q531 153 534 153T540 150T543 144Q543 141 540 126T529 88T509 43T477 5T434 -11Q404 -11 383 3T354 30T347 48H346Q345 47 342 45T337 40Q282 -11 228 -11Q172 -11 137 34T101 146Q101 260 177 351T333 442Q343 442 352 441T369 437T382 431T393 425T402 417T409 410T414 402T419 396Q423 406 436 414T461 422Q475 422 484 413T494 395Q494 384 459 244T420 88Q418 80 418 58V53ZM397 323Q397 344 382 374T333 405Q302 405 271 372Q249 349 235 316T203 215Q184 135 184 108V100V94Q184 54 207 35Q218 26 235 26Q279 26 330 91Q343 109 346 118T372 217Q397 317 397 323Z" transform="translate(2865,0)"></path><path stroke-width="1" d="M162 61Q162 26 183 26Q211 26 239 131Q245 151 249 152Q252 153 261 153H266H271Q288 153 288 144Q288 143 286 129Q276 91 266 65T232 14T179 -11Q144 -11 116 12T87 81Q87 96 88 102L216 616Q216 629 209 632T170 637H149Q143 643 143 645T145 664Q150 683 158 683Q163 683 223 688T300 694Q312 694 312 686Q312 676 240 389L164 86Q162 74 162 61Z" transform="translate(3376,0)"></path><path stroke-width="1" d="M56 11Q56 38 68 45L72 46Q77 46 84 46T98 46Q133 47 144 50T161 62Q163 66 232 344T302 626Q302 627 302 629L301 631Q295 637 240 637H222Q216 642 216 645T218 664Q222 677 228 683H403Q582 683 589 682Q672 674 723 608T775 440Q775 312 709 209T562 54Q502 14 432 2Q423 1 243 0H148H102Q72 0 64 2T56 11ZM254 51Q254 46 348 46Q395 46 422 50T484 71Q585 121 633 255Q679 396 679 477Q679 522 665 554T629 603T587 626T548 636Q547 636 536 636T510 636T480 637Q420 637 411 636T398 627Q396 623 325 339T254 51Z" transform="translate(3633,0)"></path><path stroke-width="1" d="M234 599Q234 620 251 638T292 656Q306 656 319 647T332 617Q332 594 313 577T273 560Q260 560 247 569T234 599ZM75 287Q75 292 82 313T103 362T142 413T196 441H214Q248 441 270 419T293 357Q292 338 289 330T245 208Q193 72 193 46Q193 26 209 26Q228 26 247 43Q273 71 292 136Q295 148 297 150T311 153H317Q327 153 330 153T337 150T340 143Q340 133 330 105T292 41T228 -8Q220 -10 204 -10Q160 -10 141 15T122 71Q122 98 171 227T221 384Q221 396 218 400T203 405Q175 403 156 374T128 312T116 279Q115 278 97 278H81Q75 284 75 287Z" transform="translate(4388,0)"></path><path stroke-width="1" d="M351 608Q351 642 389 661Q368 668 365 668Q358 668 352 664Q349 663 347 661T342 654T337 647T333 637T330 627T327 614T324 601T321 587T318 571L291 432Q291 431 343 431H394Q400 426 400 423T398 404Q394 390 389 386L335 385H282L255 246Q212 20 189 -51Q136 -199 58 -204Q22 -204 0 -185T-23 -134Q-23 -100 -3 -85T37 -69Q54 -69 65 -80T76 -108Q76 -115 75 -119Q70 -134 61 -144T46 -158L39 -161Q39 -162 42 -163T50 -166T61 -168Q77 -168 91 -145Q98 -128 105 -95L125 -1Q145 90 146 98Q149 109 163 180T189 317T202 384T158 385H114Q108 390 108 393T110 412Q113 424 120 431H165Q211 431 211 433Q213 435 219 473T237 561T266 639Q282 667 310 686T367 705Q402 705 426 686T450 635Q450 600 430 585T390 569Q373 569 362 580T351 608Z" transform="translate(4696,0)"></path><path stroke-width="1" d="M351 608Q351 642 389 661Q368 668 365 668Q358 668 352 664Q349 663 347 661T342 654T337 647T333 637T330 627T327 614T324 601T321 587T318 571L291 432Q291 431 343 431H394Q400 426 400 423T398 404Q394 390 389 386L335 385H282L255 246Q212 20 189 -51Q136 -199 58 -204Q22 -204 0 -185T-23 -134Q-23 -100 -3 -85T37 -69Q54 -69 65 -80T76 -108Q76 -115 75 -119Q70 -134 61 -144T46 -158L39 -161Q39 -162 42 -163T50 -166T61 -168Q77 -168 91 -145Q98 -128 105 -95L125 -1Q145 90 146 98Q149 109 163 180T189 317T202 384T158 385H114Q108 390 108 393T110 412Q113 424 120 431H165Q211 431 211 433Q213 435 219 473T237 561T266 639Q282 667 310 686T367 705Q402 705 426 686T450 635Q450 600 430 585T390 569Q373 569 362 580T351 608Z" transform="translate(5003,0)"></path><path stroke-width="1" d="M107 166Q107 230 131 283T193 369T270 420T345 441Q346 441 352 441T361 442H364Q409 442 439 418T470 355Q470 270 366 239Q308 223 218 223H205Q189 164 189 125Q189 83 206 55T261 27Q309 27 353 50T426 109Q436 121 440 121T453 111T466 97Q469 92 455 77Q424 41 372 16T258 -10Q184 -10 146 41T107 166ZM416 333T416 354T401 390T360 405Q322 405 292 384T246 336T223 288T215 261Q215 260 240 260Q262 261 276 262T314 266T353 275T384 291T408 317Z" transform="translate(5311,0)"></path><path stroke-width="1" d="M81 278Q75 284 75 289Q77 301 89 339Q122 442 183 442Q219 442 241 425T271 384L283 396Q327 442 384 442Q424 442 454 421T484 362Q484 327 464 312T424 296Q407 296 396 305T385 331Q385 352 394 365T414 384T424 390Q409 405 378 405Q322 405 276 315L268 300L234 161Q200 25 196 16Q182 -11 152 -11T120 18Q120 23 159 181Q199 343 199 346Q202 360 202 372Q202 405 182 405Q164 405 150 377T128 316T117 280Q115 278 98 278H81Z" transform="translate(5771,0)"></path><path stroke-width="1" d="M107 166Q107 230 131 283T193 369T270 420T345 441Q346 441 352 441T361 442H364Q409 442 439 418T470 355Q470 270 366 239Q308 223 218 223H205Q189 164 189 125Q189 83 206 55T261 27Q309 27 353 50T426 109Q436 121 440 121T453 111T466 97Q469 92 455 77Q424 41 372 16T258 -10Q184 -10 146 41T107 166ZM416 333T416 354T401 390T360 405Q322 405 292 384T246 336T223 288T215 261Q215 260 240 260Q262 261 276 262T314 266T353 275T384 291T408 317Z" transform="translate(6194,0)"></path><path stroke-width="1" d="M449 44Q449 26 465 26Q482 26 502 43Q528 71 547 136Q550 148 552 150T566 153H572Q582 153 585 153T592 150T595 143Q595 133 585 105T547 41T483 -8Q475 -10 459 -10Q421 -10 399 12T377 72Q377 93 393 135Q448 288 448 349Q448 367 447 372Q437 405 408 405Q381 405 357 393T315 360T291 329T278 309Q267 290 262 274T231 151Q199 24 196 16Q182 -11 152 -11T120 18Q120 23 159 181Q199 343 199 346Q202 360 202 372Q202 406 183 406Q163 406 148 374Q142 360 135 338T124 299T117 280T98 278H81Q75 284 75 287Q76 293 78 303T90 341T110 388T141 425T184 442Q195 442 204 441T221 436T235 429T247 421T256 412T262 403T267 394T271 387T273 381L274 378V374L287 387Q342 442 414 442Q474 442 500 410T526 338Q526 290 488 178T449 44Z" transform="translate(6654,0)"></path><path stroke-width="1" d="M257 -10Q183 -10 143 37T103 155Q103 257 173 341T337 440Q341 441 348 441H358Q421 441 445 415T469 356Q469 320 450 305T410 289Q392 289 381 299T370 325Q370 362 404 378L414 383Q392 402 365 405Q322 405 285 375T227 294Q217 271 202 213T187 119Q187 27 263 27Q299 27 330 40Q361 51 386 71T424 106T440 121Q444 121 455 110T466 96Q466 92 458 81T432 54T390 24T331 0T257 -10Z" transform="translate(7217,0)"></path><path stroke-width="1" d="M107 166Q107 230 131 283T193 369T270 420T345 441Q346 441 352 441T361 442H364Q409 442 439 418T470 355Q470 270 366 239Q308 223 218 223H205Q189 164 189 125Q189 83 206 55T261 27Q309 27 353 50T426 109Q436 121 440 121T453 111T466 97Q469 92 455 77Q424 41 372 16T258 -10Q184 -10 146 41T107 166ZM416 333T416 354T401 390T360 405Q322 405 292 384T246 336T223 288T215 261Q215 260 240 260Q262 261 276 262T314 266T353 275T384 291T408 317Z" transform="translate(7677,0)"></path></g></svg>