<svg xmlns:xlink="http://www.w3.org/1999/xlink" width="12.205ex" height="2.009ex" style="vertical-align: -0.338ex;" viewBox="0 -719.6 5255 865.1" role="img" focusable="false" xmlns="http://www.w3.org/2000/svg"><g stroke="currentColor" fill="currentColor" stroke-width="0" transform="matrix(1 0 0 -1 0 0)"><path stroke-width="1" d="M99 461Q99 470 99 474T104 487T120 498T151 502Q213 517 251 596Q264 622 283 622Q308 622 319 597V76H373H401Q428 76 439 69T450 38Q450 11 428 1H127Q104 10 104 38Q104 62 115 69T153 76H181H235V269Q235 461 234 461Q184 426 137 424H133Q124 424 119 425T109 431T99 447V461Z"></path><path stroke-width="1" d="M52 462Q52 528 110 575T247 622H250Q343 622 407 565T472 421Q472 371 446 324T390 248T308 178Q307 177 275 151T214 101L185 77Q185 76 286 76H388V87Q388 105 397 114T430 123T463 114Q470 107 471 100T472 61V42Q472 24 468 16T450 1H75Q53 10 53 32V38V48Q53 57 63 67T127 122Q153 144 169 157L289 256Q388 345 388 419Q388 473 346 509T231 545H224Q176 545 146 499L144 494Q155 476 155 459Q154 459 155 455T154 444T148 430T136 417T114 408Q113 408 110 408T104 407Q80 407 66 422T52 462Z" transform="translate(525,0)"></path><path stroke-width="1" d="M193 70Q193 105 214 122T258 140Q291 140 311 120T332 70Q332 44 314 23T262 1Q234 1 214 18T193 70Z" transform="translate(1051,0)"></path><path stroke-width="1" d="M42 305Q42 450 111 535T257 621Q335 621 390 562Q482 468 482 306Q482 174 418 82T262 -10T106 82T42 305ZM257 545Q209 545 168 481T126 320Q126 220 162 147Q204 65 262 65Q318 65 358 139T398 320V328Q395 411 364 470T284 543Q270 545 257 545Z" transform="translate(1576,0)"></path><path stroke-width="1" d="M392 259Q333 210 236 210H233Q163 210 109 262Q46 325 46 411T99 550Q164 622 264 622Q293 622 319 615T376 587T428 532T464 440T479 304Q479 167 400 78T217 -11Q140 -11 105 22T70 101Q70 124 84 138T122 153Q150 153 162 137T174 101Q174 91 168 76Q179 65 216 65Q267 65 300 93Q322 109 339 130T366 173T380 210T388 242T392 259ZM388 389Q388 438 357 492T268 546T185 520Q129 479 129 415Q129 384 138 363Q145 349 156 334T195 302T255 285Q305 285 345 313T388 389Z" transform="translate(2102,0)"></path><path stroke-width="1" d="M193 70Q193 105 214 122T258 140Q291 140 311 120T332 70Q332 44 314 23T262 1Q234 1 214 18T193 70Z" transform="translate(2627,0)"></path><path stroke-width="1" d="M99 461Q99 470 99 474T104 487T120 498T151 502Q213 517 251 596Q264 622 283 622Q308 622 319 597V76H373H401Q428 76 439 69T450 38Q450 11 428 1H127Q104 10 104 38Q104 62 115 69T153 76H181H235V269Q235 461 234 461Q184 426 137 424H133Q124 424 119 425T109 431T99 447V461Z" transform="translate(3153,0)"></path><path stroke-width="1" d="M392 259Q333 210 236 210H233Q163 210 109 262Q46 325 46 411T99 550Q164 622 264 622Q293 622 319 615T376 587T428 532T464 440T479 304Q479 167 400 78T217 -11Q140 -11 105 22T70 101Q70 124 84 138T122 153Q150 153 162 137T174 101Q174 91 168 76Q179 65 216 65Q267 65 300 93Q322 109 339 130T366 173T380 210T388 242T392 259ZM388 389Q388 438 357 492T268 546T185 520Q129 479 129 415Q129 384 138 363Q145 349 156 334T195 302T255 285Q305 285 345 313T388 389Z" transform="translate(3678,0)"></path><path stroke-width="1" d="M58 460Q58 523 117 572T254 621Q290 621 298 620Q376 607 421 560T466 460Q466 441 460 424T443 393T421 370T397 352T374 340T357 332L350 330L356 328Q363 325 371 321T392 310T415 295T439 274T459 249T473 217T479 179Q479 102 418 46T262 -10T106 46T45 179Q45 202 52 222T70 257T96 284T123 305T148 319T167 328L174 330L170 332Q166 333 159 336T145 343Q104 362 81 393T58 460ZM382 458Q382 491 349 518T263 546Q215 546 179 521T142 458Q142 421 178 395T262 368Q315 368 348 396T382 458ZM396 178Q396 223 358 257T263 292Q206 292 167 258T128 178Q128 137 163 102T262 66Q324 66 360 101T396 178Z" transform="translate(4204,0)"></path><path stroke-width="1" d="M235 1Q213 10 213 32V38V46Q213 65 230 73Q236 76 274 76H314V168H183L52 169Q37 175 33 182T29 205V218L30 244Q53 283 155 443T264 613Q276 623 298 623H323H363Q378 616 385 601V244H429H450Q474 244 484 237T495 206Q495 179 477 171Q471 168 429 168H385V76H425H442Q466 76 476 69T487 38Q487 10 465 1H235ZM314 244V554L117 245L215 244H314Z" transform="translate(4729,0)"></path></g></svg>