<svg xmlns:xlink="http://www.w3.org/1999/xlink" width="2.563ex" height="1.676ex" style="vertical-align: -0.338ex;" viewBox="0 -576.1 1103.5 721.6" role="img" focusable="false" xmlns="http://www.w3.org/2000/svg"><g stroke="currentColor" fill="currentColor" stroke-width="0" transform="matrix(1 0 0 -1 0 0)"><path stroke-width="1" transform="scale(0.7)" d="M20 573Q20 597 30 604T72 611H121H198Q212 602 216 595T220 573Q220 568 219 563T217 555T214 549T211 544T207 541T203 538T198 537T194 536T190 536L188 535Q179 535 179 534L188 516Q196 497 208 470T232 415T252 363T261 332Q261 329 262 329T263 332Q263 354 333 508L345 534Q345 535 336 535Q305 538 305 567V573Q305 589 308 595T327 611H483Q505 598 505 573Q505 549 488 538Q481 535 460 535H438L304 245V76H325H331Q343 76 350 75T363 64T369 38Q369 10 347 1H178Q167 5 162 11T157 21T156 38V44Q156 66 172 73Q180 76 199 76H220V245L86 535H64Q44 535 36 538Q20 548 20 573Z"></path><path stroke-width="1" transform="translate(367,0) scale(0.7)" d="M374 271Q374 241 367 232T332 223Q307 223 299 231Q290 240 290 263V279H173V76H418V118V144Q418 167 426 176T460 186Q491 186 500 166Q502 161 502 93V52Q502 25 499 17T480 1H41Q19 9 19 32V38Q19 63 36 73Q42 76 65 76H89V535H65H55Q44 535 38 537T25 548T19 573Q19 602 41 610H47Q53 610 63 610T88 610T121 610T160 611T204 611T251 611H458Q460 609 465 606T471 602T475 598T478 593T479 586T480 576T480 562V526V488Q480 452 462 444Q458 442 438 442Q413 442 405 450Q398 457 397 463T396 501V535H173V355H290V371Q290 394 299 403T332 412Q363 412 372 392Q374 387 374 317V271Z"></path><path stroke-width="1" transform="translate(735,0) scale(0.7)" d="M52 454Q52 524 107 572T229 621Q266 621 274 620Q326 610 360 588L371 581Q377 594 379 598T386 610T397 619T412 622Q433 622 439 610T446 570Q446 563 446 545T445 515V479Q445 441 444 432T436 417Q428 408 403 408T370 417Q361 424 361 434Q361 439 360 448T351 476T331 509T295 535T238 546Q194 546 163 522T132 458Q132 435 148 412Q155 401 166 393T192 380T218 371T247 364T270 359Q341 342 349 339Q389 325 418 296T461 229Q472 201 472 164Q469 92 417 41T287 -11Q240 -11 200 -1T143 19L126 29Q117 6 109 -2Q100 -11 84 -11Q64 -11 58 1T51 42Q51 49 51 66T52 95V135Q52 173 53 180T61 194Q70 203 95 203Q119 203 127 194Q136 186 136 168Q143 66 284 66H290Q325 66 350 85Q391 115 391 165Q391 204 369 228T322 260Q320 260 255 275T185 293Q123 309 88 355T52 454Z"></path></g></svg>