<svg xmlns:xlink="http://www.w3.org/1999/xlink" width="1.709ex" height="1.676ex" style="vertical-align: -0.338ex;" viewBox="0 -576.1 735.7 721.6" role="img" focusable="false" xmlns="http://www.w3.org/2000/svg"><g stroke="currentColor" fill="currentColor" stroke-width="0" transform="matrix(1 0 0 -1 0 0)"><path stroke-width="1" transform="scale(0.7)" d="M20 571Q20 598 30 604T73 611H105H136Q152 611 160 611T177 607T189 601T198 587T206 568T217 537T231 497Q354 142 365 95L368 84V535H347H342Q314 535 306 552Q304 556 304 573Q304 586 304 590T310 600T326 611H482Q497 602 500 596T504 573Q504 559 501 551T491 540T478 536T460 535H439V25Q432 7 424 4T389 0H374Q334 0 322 31L293 115Q171 468 159 517L156 528V76H177H183Q195 76 202 75T215 64T221 38Q221 10 199 1H43Q32 5 27 11T22 21T21 38V44Q21 66 37 73Q44 76 64 76H85V535H64Q49 535 42 536T28 545T20 571Z"></path><path stroke-width="1" transform="translate(367,0) scale(0.7)" d="M102 588Q140 621 240 621Q323 621 335 620Q393 613 422 588Q450 560 459 493T468 306Q468 185 460 118T422 23Q382 -10 289 -10H262H235Q142 -10 102 23Q74 50 65 118T56 306Q56 427 64 494T102 588ZM363 513Q357 523 347 530T324 540T302 544T280 546H268Q192 546 167 521Q150 501 145 452T140 300Q140 235 142 197T151 130T172 89T207 71T262 65Q317 65 341 81T374 144T384 300Q384 474 363 513Z"></path></g></svg>