<svg xmlns:xlink="http://www.w3.org/1999/xlink" width="6.457ex" height="2.176ex" style="vertical-align: -0.338ex;" viewBox="0 -791.3 2780 936.9" role="img" focusable="false" xmlns="http://www.w3.org/2000/svg"><g stroke="currentColor" fill="currentColor" stroke-width="0" transform="matrix(1 0 0 -1 0 0)"><path stroke-width="1" d="M164 157Q164 133 148 117T109 101H102Q148 22 224 22Q294 22 326 82Q345 115 345 210Q345 313 318 349Q292 382 260 382H254Q176 382 136 314Q132 307 129 306T114 304Q97 304 95 310Q93 314 93 485V614Q93 664 98 664Q100 666 102 666Q103 666 123 658T178 642T253 634Q324 634 389 662Q397 666 402 666Q410 666 410 648V635Q328 538 205 538Q174 538 149 544L139 546V374Q158 388 169 396T205 412T256 420Q337 420 393 355T449 201Q449 109 385 44T229 -22Q148 -22 99 32T50 154Q50 178 61 192T84 210T107 214Q132 214 148 197T164 157Z"></path><path stroke-width="1" d="M156 540Q156 620 201 668T302 716Q354 716 377 671T401 578Q401 505 287 386L274 373Q309 285 416 148L429 132L437 142Q474 191 543 309L562 341V349Q562 368 541 376T498 385H493V431H502L626 428Q709 428 721 431H727V385H712Q688 384 669 379T639 369T618 354T603 337T591 316T578 295Q537 223 506 176T464 117T454 104Q454 102 471 85T497 62Q543 24 585 24Q618 24 648 48T682 113V121H722V112Q721 94 714 75T692 32T646 -7T574 -22Q491 -19 414 42L402 51L391 42Q312 -22 224 -22Q144 -22 93 25T42 135Q42 153 46 169T55 197T74 225T96 249T125 278T156 308L195 347L190 360Q185 372 182 382T174 411T165 448T159 491T156 540ZM361 576Q361 613 348 646T305 679Q272 679 252 649T232 572Q232 497 255 426L259 411L267 420Q361 519 361 576ZM140 164Q140 103 167 64T240 24Q271 24 304 36T356 61T374 77Q295 156 235 262L220 292L210 310L193 293Q177 277 169 268T151 229T140 164Z" transform="translate(750,0)"></path><path stroke-width="1" d="M213 578L200 573Q186 568 160 563T102 556H83V602H102Q149 604 189 617T245 641T273 663Q275 666 285 666Q294 666 302 660V361L303 61Q310 54 315 52T339 48T401 46H427V0H416Q395 3 257 3Q121 3 100 0H88V46H114Q136 46 152 46T177 47T193 50T201 52T207 57T213 61V578Z" transform="translate(1779,0)"></path><path stroke-width="1" d="M96 585Q152 666 249 666Q297 666 345 640T423 548Q460 465 460 320Q460 165 417 83Q397 41 362 16T301 -15T250 -22Q224 -22 198 -16T137 16T82 83Q39 165 39 320Q39 494 96 585ZM321 597Q291 629 250 629Q208 629 178 597Q153 571 145 525T137 333Q137 175 145 125T181 46Q209 16 250 16Q290 16 318 46Q347 76 354 130T362 333Q362 478 354 524T321 597Z" transform="translate(2279,0)"></path></g></svg>