<svg xmlns:xlink="http://www.w3.org/1999/xlink" width="4.882ex" height="2.009ex" style="vertical-align: -0.338ex;" viewBox="0 -719.6 2102 865.1" role="img" focusable="false" xmlns="http://www.w3.org/2000/svg"><g stroke="currentColor" fill="currentColor" stroke-width="0" transform="matrix(1 0 0 -1 0 0)"><path stroke-width="1" d="M126 306Q105 306 90 321T74 359Q74 439 211 439Q268 439 276 438Q343 426 383 390T430 306Q431 301 431 190V81Q446 79 465 78T492 76T509 72T521 60T524 38Q524 11 506 3Q502 1 466 1Q426 1 406 5T379 14T355 36L345 30Q284 -6 205 -6Q135 -6 92 39T48 141Q48 182 79 212T158 256T252 278T342 285H347V290Q347 315 325 335T267 362Q258 363 224 363Q189 363 185 362H179L178 358Q178 353 178 352T176 345T174 337T170 330T165 322T158 316T150 311T139 308T126 306ZM132 140Q132 115 157 93T224 70Q269 70 302 87T344 133Q346 139 347 175V211H339Q256 209 194 190T132 140Z"></path><path stroke-width="1" d="M4 573Q4 596 15 603T52 611H90H124Q146 611 155 608T171 591Q173 586 173 491V396L182 402Q217 424 256 431Q280 437 309 437Q376 437 434 379T492 217Q492 162 473 118T422 47T358 8T293 -6Q229 -6 174 38Q171 13 163 7T135 1H131H122Q99 1 90 23L89 279V535H58L27 536Q4 543 4 573ZM409 215Q409 269 377 315T283 361Q255 361 224 344T177 297L173 290V167Q189 124 213 97T278 70Q330 70 369 111T409 215Z" transform="translate(525,0)"></path><path stroke-width="1" d="M266 573Q266 596 277 603T314 611H352H385Q411 611 419 607T435 586V76H498Q512 67 516 60T520 38Q520 9 498 1H436Q429 1 417 1T398 0Q375 0 363 7T351 34V43L342 36Q288 -6 223 -6Q143 -6 87 58T31 216Q31 307 88 372T230 437Q292 437 342 405L351 399V535H320L289 536Q266 543 266 573ZM351 290Q347 302 337 316T302 346T244 361Q193 361 154 319T115 215Q115 152 152 111T235 70Q314 70 351 170V290Z" transform="translate(1051,0)"></path><path stroke-width="1" d="M291 -6Q196 -6 131 60T66 216Q66 296 119 361Q154 403 200 421T273 439Q275 440 293 440H313Q400 440 433 409Q454 388 454 359Q454 335 439 321T402 306Q380 306 365 321T350 357V362L340 363Q339 363 326 363T303 364Q280 364 266 362Q217 352 184 313T151 215Q151 153 199 112T313 70Q341 70 357 85T381 118T394 140Q402 146 424 146Q443 146 447 144Q466 137 466 117Q466 106 457 88T429 47T374 10T291 -6Z" transform="translate(1576,0)"></path></g></svg>